<svg xmlns="http://www.w3.org/2000/svg" viewBox="0 0 112 24" fill="none" class="root-1cyv4ql">
    <rect width="24" height="24" fill="white"></rect>
    <path class="brandmark-background" fill="#4DD684" d="M0 0V24H2.02369C2.02369 18.4829 6.52392 14.0113 12.0739 14.0113C17.625 14.0113 22.1241 18.484 22.1241
                24H24.1478V0H0Z"></path>
    <path class="brandmark-background" fill="#4DD684" d="M12.0507 18.8398C9.18275 18.8398 6.8584 21.1497 6.8584 23.9998H17.242C17.243 21.1508 14.9187 18.8398
                12.0507 18.8398Z"></path>
    <path fill-rule="evenodd" clip-rule="evenodd" class="wordmark" fill="#4DD684" d="M111.999 5.58775V8.7693H108.089V18.2752C108.089 19.9224 108.766 20.746 110.608 20.746C111.06 20.746
                111.698 20.6719 112 20.5966V23.591C111.698 23.7028 110.796 23.9276 109.593 23.9276C106.509 23.9276
                104.554 22.0567 104.554 18.7999V8.7693H101.093V5.58775H104.918L104.874 1.81986L108.088
                0.228516V5.58775H111.999ZM60.0556 9.43434C59.5021 9.20194 58.8947 9.07372 58.2575 9.07372C55.7798
                9.07372 53.7548 11.0119 53.6184 13.4538C53.5737 13.7995 53.5497 14.6101 53.5497
                14.6101V23.6621H50.0153V5.59462H53.4752V8.75088C54.792 5.97127 57.0473 5.29468 58.8901 5.29468C59.3783
                5.29468 59.8677 5.36909 60.0556 5.40687V9.43434ZM40.8508 23.9632C35.6995 23.9632 31.5073 19.7755 31.5073
                14.6284C31.5073 9.48129 35.6995 5.29468 40.8508 5.29468C43.3468 5.29468 45.6927 6.26549 47.4576
                8.02851L45.1025 10.3811C43.9668 9.2466 42.4575 8.62153 40.8508 8.62153C37.5354 8.62153 34.8388 11.3164
                34.8388 14.6272C34.8388 17.9392 37.5365 20.6341 40.8508 20.6341C42.4564 20.6341 43.9668 20.009 45.1025
                18.8745L47.4576 21.2271C45.6939 22.9924 43.3468 23.9632 40.8508 23.9632ZM70.7891 23.9999C65.6309 23.9999
                61.4342 19.8076 61.4342 14.6547C61.4342 9.50189 65.6309 5.30957 70.7891 5.30957C75.9474 5.30957 80.1441
                9.50189 80.1441 14.6547C80.1441 19.8076 75.9474 23.9999 70.7891 23.9999ZM70.7891 8.64672C67.4725 8.64672
                64.7748 11.3416 64.7748 14.6547C64.7748 17.9678 67.4725 20.6627 70.7891 20.6627C74.1057 20.6627 76.8034
                17.9678 76.8034 14.6547C76.8034 11.3416 74.1046 8.64672 70.7891 8.64672ZM92.0471 23.9633C86.8946 23.9633
                82.7037 19.7756 82.7037 14.6296C82.7037 9.48365 86.8958 5.2959 92.0471 5.2959C94.5432 5.2959 96.8891
                6.26671 98.6539 8.02973L96.2989 10.3823C95.1632 9.24781 93.6539 8.62274 92.0471 8.62274C88.7317 8.62274
                86.0351 11.3176 86.0351 14.6285C86.0351 17.9404 88.7329 20.6353 92.0471 20.6353C93.6527 20.6353 95.1632
                20.0103 96.2989 18.8757L98.6539 21.2283C96.8891 22.9925 94.5432 23.9633 92.0471 23.9633Z"></path>
</svg>